<?xml version="1.0" encoding="utf-8"?>
<!-- Generator: Adobe Illustrator 17.1.0, SVG Export Plug-In . SVG Version: 6.00 Build 0)  -->
<!DOCTYPE svg PUBLIC "-//W3C//DTD SVG 1.1//EN" "http://www.w3.org/Graphics/SVG/1.1/DTD/svg11.dtd">
<svg version="1.1" id="camera" xmlns="http://www.w3.org/2000/svg" xmlns:xlink="http://www.w3.org/1999/xlink" x="0px" y="0px"
	 viewBox="0 0 644.8112 1010" enable-background="new 0 0 644.8112 1010" xml:space="preserve">
<g>
	<g>
		<rect x="386.5391" y="629.3145" fill="#FFFFFF" width="61.3565" height="65.7675"/>
		<path fill="#4D4D4D" d="M447.8956,704.6104h-61.3565c-5.2676,0-9.5293-4.2618-9.5293-9.5284v-65.7675
			c0-5.2666,4.2617-9.5284,9.5293-9.5284h61.3565c5.2666,0,9.5283,4.2618,9.5283,9.5284v65.7675
			C457.4239,700.3486,453.1622,704.6104,447.8956,704.6104L447.8956,704.6104z M396.0665,685.5537h42.3007v-46.7109h-42.3007
			V685.5537L396.0665,685.5537z"/>
	</g>
	<g>
		<path fill="#FFFFFF" d="M504.879,965.4102c0,19.373-15.67,35.0615-35.0606,35.0615H44.5801
			c-19.3633,0-35.0517-15.6885-35.0517-35.0615V715.4971c0-19.3174,15.6884-35.042,35.0517-35.042h425.2383
			c19.3906,0,35.0606,15.7246,35.0606,35.042V965.4102z"/>
		<path fill="#4D4D4D" d="M469.8184,1010H44.5801C19.9966,1010,0,989.9941,0,965.4102V715.4971
			c0-24.5742,19.9966-44.5713,44.5801-44.5713h425.2383c24.584,0,44.5889,19.9971,44.5889,44.5713v249.9131
			C514.4073,989.9941,494.4024,1010,469.8184,1010L469.8184,1010z M44.5801,689.9824c-14.0688,0-25.5234,11.4453-25.5234,25.5146
			v249.9131c0,14.0781,11.4546,25.5332,25.5234,25.5332h425.2383c14.0781,0,25.5322-11.4551,25.5322-25.5332V715.4971
			c0-14.0694-11.4541-25.5146-25.5322-25.5146H44.5801L44.5801,689.9824z"/>
	</g>
	<g>
		<rect x="364.6153" y="765.2227" fill="#5FD4AF" width="162.1865" height="149.0293"/>
		<path fill="#4D4D4D" d="M526.8018,923.7793H364.6153c-5.2656,0-9.5274-4.2617-9.5274-9.5273V765.2227
			c0-5.2657,4.2618-9.5274,9.5274-9.5274h162.1865c5.2665,0,9.5283,4.2617,9.5283,9.5274V914.252
			C536.3301,919.5176,532.0684,923.7793,526.8018,923.7793L526.8018,923.7793z M374.1446,904.7227h143.1289V774.752H374.1446
			V904.7227L374.1446,904.7227z"/>
	</g>
	<g>
		<path fill="#FFFFFF" d="M384.3243,840.4814c0,70.1963-56.9097,127.125-127.1343,127.125
			c-70.2061,0-127.125-56.9287-127.125-127.125c0-70.2334,56.9189-127.1611,127.125-127.1611
			C327.4146,713.3203,384.3243,770.248,384.3243,840.4814z"/>
		<path fill="#4D4D4D" d="M257.19,977.1348c-75.3521,0-136.6533-61.3008-136.6533-136.6534
			c0-75.3701,61.3012-136.6904,136.6533-136.6904c75.3516,0,136.6616,61.3203,136.6616,136.6904
			C393.8516,915.834,332.5416,977.1348,257.19,977.1348L257.19,977.1348z M257.19,722.8477
			c-64.8467,0-117.5967,52.7695-117.5967,117.6337c0,64.8467,52.75,117.5967,117.5967,117.5967
			c64.8462,0,117.605-52.75,117.605-117.5967C374.795,775.6172,322.0362,722.8477,257.19,722.8477L257.19,722.8477z"/>
	</g>
	<g>
		<path fill="#FF9554" d="M344.8892,840.4814c0,48.4053-39.2485,87.6338-87.6992,87.6338
			c-48.4048,0-87.6719-39.2285-87.6719-87.6338c0-48.4043,39.2671-87.6708,87.6719-87.6708
			C305.6407,752.8105,344.8892,792.0771,344.8892,840.4814z"/>
		<path fill="#4D4D4D" d="M257.19,937.6445c-53.5967,0-97.2002-43.5849-97.2002-97.1631c0-53.5966,43.6035-97.2002,97.2002-97.2002
			c53.6152,0,97.228,43.6036,97.228,97.2002C354.418,894.0596,310.8052,937.6445,257.19,937.6445L257.19,937.6445z M257.19,762.3379
			c-43.0913,0-78.1436,35.0527-78.1436,78.1435c0,43.0635,35.0523,78.1065,78.1436,78.1065
			c43.1006,0,78.1709-35.043,78.1709-78.1065C335.3609,797.3906,300.2906,762.3379,257.19,762.3379L257.19,762.3379z"/>
	</g>
	<g>
		<path fill="#4D4D4D" d="M44.5801,1010c-5.2666,0-9.5283-4.2617-9.5283-9.5283V690.6895c0-5.2657,4.2617-9.5274,9.5283-9.5274
			s9.5283,4.2617,9.5283,9.5274v309.7822C54.1084,1005.7383,49.8467,1010,44.5801,1010L44.5801,1010z"/>
	</g>
</g>
<g>
	<g>
		<polygon fill="#FF9554" points="518.8926,651.4414 522.5772,551.8784 570.4981,566.6172 		"/>
		<path fill="#4D4D4D" d="M518.8926,660.9697c-0.9121,0-1.833-0.1299-2.7451-0.3994c-4.1494-1.248-6.9414-5.1465-6.7744-9.4824
			l3.6855-99.563c0.1016-2.959,1.5821-5.6948,4.001-7.4165c2.4004-1.7119,5.4717-2.2144,8.3184-1.3398l47.9209,14.7392
			c2.8105,0.8652,5.0615,2.9776,6.1035,5.7227c1.043,2.7538,0.7637,5.8242-0.7627,8.3379l-51.6055,84.8242
			C525.2657,659.2852,522.1495,660.9697,518.8926,660.9697L518.8926,660.9697z M531.6407,564.6348l-1.8711,50.6015l26.2217-43.1104
			L531.6407,564.6348L531.6407,564.6348z"/>
	</g>
	<g>
		<polygon fill="#FF9554" points="536.1817,674.2012 626.1045,631.2871 635.2793,680.5293 		"/>
		<path fill="#4D4D4D" d="M635.2793,690.0566c-0.205,0-0.4003-0.0087-0.6054-0.0175l-99.0977-6.3282
			c-4.3359-0.2793-7.9277-3.4423-8.7461-7.7041c-0.8281-4.2617,1.3301-8.5322,5.2481-10.4033l89.9228-42.914
			c2.6885-1.2754,5.7969-1.2383,8.4209,0.1015c2.6426,1.3496,4.5039,3.8438,5.0528,6.7461l9.1748,49.2422
			c0.54,2.8945-0.2881,5.8711-2.2432,8.0684C640.5918,688.8945,637.9961,690.0566,635.2793,690.0566L635.2793,690.0566z
			 M573.336,667.0273l50.3301,3.211l-4.6524-25.0117L573.336,667.0273L573.336,667.0273z"/>
	</g>
	<g>
		<path fill="#CCCCCC" d="M320.5474,638.3398c0,0-3.7407-204.4116-170.9419-226.7343l-48.3301,37.1548
			C101.2754,448.7603,249.9322,407.8931,320.5474,638.3398z"/>
		<path fill="#4D4D4D" d="M320.5381,647.8691c-4.122,0-7.8628-2.6806-9.1001-6.7373
			c-49.4931-161.5254-136.3183-185.644-183.6621-185.644c-14.6176,0-23.9135,2.4473-24.0068,2.4658
			c-4.3916,1.1821-9.0161-0.9023-11.0264-4.978c-2.0097-4.0757-0.8745-8.9981,2.7266-11.771l48.3301-37.1548
			c2.0097-1.5352,4.5312-2.2236,7.0717-1.8887c173.3052,23.1416,179.1675,233.8809,179.2046,236.003
			c0.084,4.7539-3.3403,8.8388-8.0302,9.5839C321.543,647.8311,321.0406,647.8691,320.5381,647.8691L320.5381,647.8691z
			 M132.8472,436.5151c42.7656,1.3399,110.0318,20.4707,161.5625,113.7442c-18.647-54.2759-58.2305-115.7632-142.1802-128.6509
			L132.8472,436.5151L132.8472,436.5151z"/>
	</g>
	<g>
		<path fill="#CCCCCC" d="M322.5015,472.4136c0,0,3.7222-204.4024,170.9321-226.7344l48.3125,37.1826
			C541.7461,282.8618,393.0889,242.0039,322.5015,472.4136z"/>
		<path fill="#4D4D4D" d="M322.5108,481.9419c-0.5024,0-1.0049-0.0371-1.5073-0.1206c-4.69-0.7446-8.1138-4.8296-8.0303-9.5845
			c0.0371-2.1216,5.8809-212.8515,179.1948-236.0019c2.5596-0.2979,5.0723,0.3535,7.0821,1.8979l48.3105,37.1826
			c3.5918,2.7637,4.7275,7.6861,2.709,11.7617c-1.9922,4.0757-6.5889,6.1783-11.0176,4.9781
			c-0.0937-0.0186-9.3887-2.4658-24.0068-2.4658c-47.3438,0-134.1592,24.1186-183.6343,185.6157
			C330.3736,479.2622,326.6329,481.9419,322.5108,481.9419L322.5108,481.9419z M490.8106,255.6821
			c-83.9688,12.8965-123.5332,74.3931-142.1807,128.6695c51.5303-93.2828,118.8057-112.4043,161.5811-113.7349L490.8106,255.6821
			L490.8106,255.6821z"/>
	</g>
	<g>
		<polygon fill="#FFFFFF" points="170.5699,176.6826 186.9278,209.7993 223.4688,215.1309 197.0333,240.8965 203.2955,277.2881 
			170.5699,260.0928 137.9092,277.2881 144.1529,240.8965 117.6895,215.1309 154.2486,209.7993 		"/>
		<path fill="#4D4D4D" d="M137.9092,286.8164c-1.9726,0-3.936-0.6138-5.6015-1.8144c-2.9312-2.1309-4.4014-5.7505-3.7871-9.3233
			l5.3969-31.4512l-22.8716-22.2666c-2.6054-2.5312-3.5361-6.3183-2.4194-9.7705c1.1167-3.4521,4.1035-5.9643,7.6861-6.4853
			l31.6088-4.6153l14.0972-28.622c1.6099-3.2476,4.9224-5.3135,8.5513-5.3135l0,0c3.6289,0,6.9414,2.0566,8.542,5.3042
			l14.1435,28.6313l31.5904,4.6153c3.5825,0.521,6.5693,3.0332,7.686,6.4853c1.1162,3.4522,0.186,7.23-2.4102,9.7613
			l-22.8437,22.2666l5.4062,31.4506c0.6143,3.5826-0.8466,7.1929-3.7871,9.3238c-2.9219,2.1494-6.8301,2.438-10.0307,0.726
			l-28.2964-14.8603l-28.2222,14.8603C140.9522,286.4536,139.4258,286.8164,137.9092,286.8164L137.9092,286.8164z
			 M170.5699,250.5645c1.5259,0,3.0425,0.3627,4.4292,1.0976l15.6323,8.207l-2.9868-17.3535
			c-0.5308-3.0986,0.4931-6.2529,2.7353-8.4399l12.6177-12.3008l-17.4468-2.5498c-3.0986-0.4468-5.7783-2.4004-7.165-5.2109
			l-7.8066-15.7998l-7.7789,15.7998c-1.3867,2.8105-4.0756,4.7641-7.1743,5.2109l-17.456,2.5498l12.6264,12.2915
			c2.252,2.1963,3.2754,5.3506,2.7452,8.4399l-2.9776,17.3443l15.5674-8.1885
			C167.5176,250.9272,169.0435,250.5645,170.5699,250.5645L170.5699,250.5645z"/>
	</g>
	<g>
		<polygon fill="#FFFFFF" points="327.9356,9.5278 344.275,42.626 380.8252,47.9761 354.3614,73.7417 360.5958,110.1333 
			327.9356,92.9565 295.2378,110.1333 301.4908,73.7417 275.0459,47.9761 311.5586,42.626 		"/>
		<path fill="#4D4D4D" d="M360.5958,119.6616c-1.5157,0-3.043-0.3628-4.4375-1.0976l-28.2227-14.8418l-28.2686,14.851
			c-3.1914,1.6841-7.081,1.4048-10.0307-0.7353c-2.9312-2.1309-4.4014-5.7412-3.7871-9.314l5.4062-31.4604l-22.8623-22.2666
			c-2.5962-2.5215-3.5268-6.3091-2.4101-9.7613c1.1167-3.4423,4.0942-5.9643,7.686-6.4853l31.5625-4.6245l14.1621-28.6221
			C321.0035,2.0562,324.316,0,327.9356,0l0,0c3.6289,0,6.9414,2.0562,8.542,5.313l14.125,28.6128l31.5996,4.6245
			c3.5918,0.521,6.5693,3.043,7.6865,6.4853c1.1162,3.4522,0.1856,7.2398-2.4199,9.7706l-22.8711,22.2666l5.3867,31.4511
			c0.6153,3.5728-0.8554,7.1831-3.7871,9.3233C364.5323,119.0479,362.5684,119.6616,360.5958,119.6616L360.5958,119.6616z
			 M295.5079,54.6108l12.6362,12.3106c2.2422,2.1865,3.2661,5.3408,2.7353,8.4302l-2.9775,17.3725l15.6045-8.207
			c2.7729-1.4517,6.0762-1.4609,8.8677,0.0093l15.5674,8.1884l-2.9683-17.3632c-0.5308-3.0894,0.4932-6.2437,2.7446-8.4395
			l12.6358-12.3013l-17.4556-2.559c-3.0986-0.4561-5.7783-2.4004-7.1646-5.211l-7.8071-15.8091l-7.8257,15.8189
			c-1.3862,2.8008-4.0659,4.7451-7.1645,5.2012L295.5079,54.6108L295.5079,54.6108z"/>
	</g>
	<g>
		<polygon fill="#FFFFFF" points="263.9917,275.0366 280.3409,308.1343 316.9,313.4658 290.4551,339.2129 296.6895,375.6138 
			263.9917,358.3999 231.3126,375.6138 237.5562,339.2129 211.1114,313.4658 247.6524,308.1343 		"/>
		<path fill="#4D4D4D" d="M231.3126,385.1421c-1.9727,0-3.9361-0.6138-5.6016-1.8145c-2.9312-2.1308-4.4014-5.7505-3.7871-9.3232
			l5.397-31.4605l-22.8531-22.248c-2.6054-2.5308-3.5361-6.3179-2.4194-9.77c1.1167-3.4522,4.0942-5.9649,7.686-6.4859
			l31.5904-4.6152l14.125-28.6035c3.2011-6.5137,13.8833-6.5044,17.0839-0.0093l14.1343,28.6128l31.6089,4.6152
			c3.5825,0.521,6.5693,3.0337,7.686,6.4859c1.1167,3.4521,0.1861,7.2392-2.4194,9.77l-22.853,22.248l5.3877,31.4605
			c0.6142,3.5727-0.856,7.1924-3.7871,9.3232c-2.9219,2.1309-6.8203,2.4287-10.0401,0.7168l-28.2593-14.8789l-28.2407,14.8789
			C234.3555,384.7793,232.8296,385.1421,231.3126,385.1421L231.3126,385.1421z M263.9917,348.8716
			c1.5259,0,3.0523,0.3628,4.4385,1.0976l15.6045,8.2163l-2.9682-17.3627c-0.5303-3.0894,0.4931-6.253,2.7451-8.44l12.6079-12.2729
			l-17.4561-2.5498c-3.0986-0.4463-5.7783-2.4004-7.1645-5.2105l-7.8072-15.7905l-7.7973,15.7905
			c-1.3867,2.8101-4.0664,4.7642-7.1651,5.2105l-17.4375,2.5498l12.6084,12.2729c2.2515,2.1963,3.2754,5.3506,2.7447,8.44
			l-2.9776,17.3535l15.586-8.2071C260.94,349.2344,262.4659,348.8716,263.9917,348.8716L263.9917,348.8716z"/>
	</g>
</g>
</svg>
