<?xml version="1.0" encoding="utf-8"?>
<!-- Generator: Adobe Illustrator 17.1.0, SVG Export Plug-In . SVG Version: 6.00 Build 0)  -->
<!DOCTYPE svg PUBLIC "-//W3C//DTD SVG 1.1//EN" "http://www.w3.org/Graphics/SVG/1.1/DTD/svg11.dtd">
<svg version="1.1" id="car" xmlns="http://www.w3.org/2000/svg" xmlns:xlink="http://www.w3.org/1999/xlink" x="0px" y="0px"
	 viewBox="0 0 1010 822.7505" enable-background="new 0 0 1010 822.7505" xml:space="preserve">
<g>
	<g>
		<polygon fill="#4D4D4D" points="1010,822.7505 0,822.7505 0,800.3071 1010,800.3071 1010,822.7505 		"/>
	</g>
	<g>
		<polygon fill="#4D4D4D" points="922.9395,723.7681 79.4868,723.7681 79.4868,701.3228 922.9395,701.3228 922.9395,723.7681 		"/>
	</g>
	<g>
		<polygon fill="#4D4D4D" points="965.5938,771.7681 40.5928,771.7681 40.5928,749.3247 965.5938,749.3247 965.5938,771.7681 		"/>
	</g>
	<g>
		<polygon fill="#4D4D4D" points="837.7207,627.897 157.2974,627.897 157.2974,605.4517 837.7207,605.4517 837.7207,627.897 		"/>
	</g>
	<g>
		<polygon fill="#4D4D4D" points="880.3301,675.854 118.4028,675.854 118.4028,653.4087 880.3301,653.4087 880.3301,675.854 		"/>
	</g>
</g>
<g>
	<g>
		<path fill="#FF9554" d="M827.4854,285.4434h-2.8936C804.252,124.979,667.5254,11.2222,501.5146,11.2222
			c-166.0976,0-302.8901,113.9101-323.0991,274.5063C2.104,292.1504,37.8311,490.5122,37.8311,490.5122H973.418
			C973.418,490.5122,1001.9551,285.4434,827.4854,285.4434z"/>
		<path fill="#4D4D4D" d="M973.418,501.7349H37.8311c-5.4361,0-10.0826-3.8907-11.0469-9.2285
			c-0.7451-4.1309-17.6006-101.7452,33.831-165.5933c24.8555-30.8613,61.1411-48.2861,107.9702-51.8701
			C193.3311,115.0938,331.8442,0,501.5146,0C670.8887,0,809.293,114.7759,834.3457,274.3198
			c46.5215,1.4136,83.2578,17.25,109.2744,47.1358c55.1143,63.3003,41.5127,166.25,40.9113,170.6015
			C983.7637,497.6021,979.0176,501.7349,973.418,501.7349L973.418,501.7349z M47.6504,479.2896h915.5537
			c1.8076-25.94,2.7725-98.0406-36.5713-143.1709c-22.8281-26.1812-56.1875-39.4532-99.1474-39.4532h-2.8936
			c-5.6543,0-10.4219-4.208-11.1348-9.8081C794.0371,133.6475,662.8457,22.4443,501.5146,22.4443
			c-161.4619,0-292.6655,111.313-311.9643,264.6871c-0.6904,5.4575-5.2275,9.6108-10.729,9.8081
			c-44.5601,1.622-78.4351,16.417-100.6607,43.9687C41.6118,386.2022,44.9985,454.6426,47.6504,479.2896L47.6504,479.2896z"/>
	</g>
	<g>
		<g>
			<path fill="#B3B3B3" d="M372.9194,490.5122c0-66.7856-54.1162-120.9238-120.8579-120.9238
				c-66.7636,0-120.9018,54.1382-120.9018,120.9238H372.9194z"/>
			<path fill="#4D4D4D" d="M372.9194,501.7349H131.1597c-6.2032,0-11.2222-5.0196-11.2222-11.2227
				c0-72.8677,59.2671-132.146,132.124-132.146c72.835,0,132.0801,59.2783,132.0801,132.146
				C384.1416,496.7153,379.1226,501.7349,372.9194,501.7349L372.9194,501.7349z M142.9517,479.2896h218.1757
				c-5.6328-55.2339-52.396-98.479-109.0659-98.479C195.3696,380.8106,148.5845,424.0557,142.9517,479.2896L142.9517,479.2896z"/>
		</g>
		<g>
			<path fill="#FFFFFF" d="M331.6255,493.5806c0,43.9238-35.6177,79.5644-79.564,79.5644
				c-43.9243,0-79.5639-35.6406-79.5639-79.5644c0-43.9683,35.6396-79.6294,79.5639-79.6294
				C296.0078,413.9512,331.6255,449.6123,331.6255,493.5806z"/>
			<path fill="#4D4D4D" d="M252.0615,584.3657c-50.0615,0-90.7861-40.7245-90.7861-90.7851
				c0-50.0943,40.7246-90.8516,90.7861-90.8516c50.0615,0,90.7862,40.7573,90.7862,90.8516
				C342.8477,543.6411,302.123,584.3657,252.0615,584.3657L252.0615,584.3657z M252.0615,425.1734
				c-37.6889,0-68.3418,30.685-68.3418,68.4072c0,37.6894,30.6529,68.3418,68.3418,68.3418
				c37.6885,0,68.3413-30.6524,68.3413-68.3418C320.4028,455.8584,289.75,425.1734,252.0615,425.1734L252.0615,425.1734z"/>
		</g>
		<g>
			<path fill="#DFDFE1" d="M276.5444,493.5806c0,13.457-10.9594,24.416-24.4829,24.416c-13.5239,0-24.4829-10.959-24.4829-24.416
				c0-13.5449,10.959-24.5059,24.4829-24.5059C265.585,469.0747,276.5444,480.0357,276.5444,493.5806z"/>
			<path fill="#4D4D4D" d="M252.0615,529.2192c-19.6826,0-35.7051-15.9882-35.7051-35.6386
				c0-19.7051,16.0225-35.7271,35.7051-35.7271c19.6826,0,35.7051,16.022,35.7051,35.7271
				C287.7666,513.231,271.7441,529.2192,252.0615,529.2192L252.0615,529.2192z M252.0615,480.2974
				c-7.31,0-13.2607,5.9629-13.2607,13.2832c0,7.2773,5.9507,13.1953,13.2607,13.1953c7.3096,0,13.2608-5.918,13.2608-13.1953
				C265.3223,486.2603,259.3711,480.2974,252.0615,480.2974L252.0615,480.2974z"/>
		</g>
	</g>
	<g>
		<g>
			<path fill="#B3B3B3" d="M882.5879,490.5122c0-66.7856-54.1387-120.9238-120.9238-120.9238
				c-66.7411,0-120.8799,54.1382-120.8799,120.9238H882.5879z"/>
			<path fill="#4D4D4D" d="M882.5879,501.7349H640.7842c-6.2022,0-11.2217-5.0196-11.2217-11.2227
				c0-72.8677,59.2559-132.146,132.1016-132.146c72.8681,0,132.1464,59.2783,132.1464,132.146
				C893.8105,496.7153,888.791,501.7349,882.5879,501.7349L882.5879,501.7349z M652.5762,479.2896h218.2197
				c-5.6328-55.2339-52.4287-98.479-109.1318-98.479C704.9834,380.8106,658.209,424.0557,652.5762,479.2896L652.5762,479.2896z"/>
		</g>
		<g>
			<path fill="#FFFFFF" d="M841.25,493.5806c0,43.9238-35.6387,79.5644-79.5859,79.5644c-43.9239,0-79.5635-35.6406-79.5635-79.5644
				c0-43.9683,35.6396-79.6294,79.5635-79.6294C805.6113,413.9512,841.25,449.6123,841.25,493.5806z"/>
			<path fill="#4D4D4D" d="M761.6641,584.3657c-50.0616,0-90.7852-40.7245-90.7852-90.7851
				c0-50.0943,40.7236-90.8516,90.7852-90.8516c50.0722,0,90.8086,40.7573,90.8086,90.8516
				C852.4727,543.6411,811.7363,584.3657,761.6641,584.3657L761.6641,584.3657z M761.6641,425.1734
				c-37.6885,0-68.3418,30.685-68.3418,68.4072c0,37.6894,30.6533,68.3418,68.3418,68.3418
				c37.6992,0,68.3632-30.6524,68.3632-68.3418C830.0273,455.8584,799.3633,425.1734,761.6641,425.1734L761.6641,425.1734z"/>
		</g>
		<g>
			<path fill="#DFDFE1" d="M786.1465,493.5806c0,13.457-10.9365,24.416-24.4824,24.416c-13.5235,0-24.4825-10.959-24.4825-24.416
				c0-13.5449,10.959-24.5059,24.4825-24.5059C775.21,469.0747,786.1465,480.0357,786.1465,493.5806z"/>
			<path fill="#4D4D4D" d="M761.6641,529.2192c-19.6827,0-35.7051-15.9882-35.7051-35.6386
				c0-19.7051,16.0224-35.7271,35.7051-35.7271c19.6836,0,35.705,16.022,35.705,35.7271
				C797.3691,513.231,781.3477,529.2192,761.6641,529.2192L761.6641,529.2192z M761.6641,480.2974
				c-7.3096,0-13.2598,5.9629-13.2598,13.2832c0,7.2773,5.9502,13.1953,13.2598,13.1953c7.3105,0,13.2607-5.918,13.2607-13.1953
				C774.9248,486.2603,768.9746,480.2974,761.6641,480.2974L761.6641,480.2974z"/>
		</g>
	</g>
	<g>
		<g>
			<path fill="#5FD4AF" d="M770.8701,274.7256c0,0-30.0947-199.5894-243.3384-213.7705v213.7705H770.8701z"/>
			<path fill="#4D4D4D" d="M770.8701,285.9478H527.5317c-6.2026,0-11.2221-5.0196-11.2221-11.2222V60.9551
				c0-3.1016,1.2822-6.0713,3.5508-8.1973c2.2905-2.1152,5.3154-3.1123,8.4169-3.0029
				c219.71,14.6084,253.377,221.2114,253.6944,223.2939c0.4824,3.2329-0.46,6.5205-2.5967,8.9971
				C777.248,284.523,774.1357,285.9478,770.8701,285.9478L770.8701,285.9478z M538.7539,263.5029h218.3516
				c-10.334-42.3789-55.2784-173.5058-218.3516-190.3393V263.5029L538.7539,263.5029z"/>
		</g>
		<g>
			<path fill="#5FD4AF" d="M233.6719,274.7256h247.9409V60.8677C259.4917,74.5444,233.6719,274.7256,233.6719,274.7256z"/>
			<path fill="#4D4D4D" d="M481.6128,285.9478H233.6719c-3.2222,0-6.3013-1.3921-8.4278-3.814
				c-2.1259-2.4219-3.1123-5.644-2.7065-8.8442c0.2739-2.0933,29.6553-209.5396,258.3848-223.6226
				c2.9702-0.208,6.1152,0.8989,8.373,3.0249c2.2573,2.126,3.5396,5.0742,3.5396,8.1758v213.8579
				C492.835,280.9282,487.8159,285.9478,481.6128,285.9478L481.6128,285.9478z M247.1738,263.5029h223.2168V72.9995
				C299.8105,89.2739,256.6533,221.2881,247.1738,263.5029L247.1738,263.5029z"/>
		</g>
	</g>
</g>
</svg>
